<svg version="1.1" xmlns="http://www.w3.org/2000/svg" xmlns:xlink="http://www.w3.org/1999/xlink" width="1644" height="956"><defs/><g><g transform="translate(10,10) scale(1,1)"><path fill="none" stroke="#000000" d="M 0 0 L 1624 0 L 1624 936 L 0 936 L 0 0" stroke-miterlimit="10"/></g><g transform="translate(10,10) scale(1,1)"><path fill="#ffffff" stroke="none" d="M 0 0 L 0 25 L 238 25 L 250.5 12.5 L 250.5 0 L 0 0"/></g><g transform="translate(10,10) scale(1,1)"><path fill="none" stroke="#000000" d="M 0 0 L 0 25 L 238 25 L 250.5 12.5 L 250.5 0 L 0 0 L 0 0" stroke-miterlimit="10"/></g><g transform="translate(10,10) scale(1,1)"><g><path fill="none" stroke="none"/><text fill="#000000" stroke="none" font-family="Arial" font-size="16px" font-style="normal" font-weight="normal" text-decoration="none" x="72" y="20.5">VAR-Tool Deployment</text></g></g><g transform="translate(10,10) scale(1,1)"><g><path fill="none" stroke="none"/><text fill="#000000" stroke="none" font-family="Arial" font-size="16px" font-style="normal" font-weight="bold" text-decoration="none" x="5" y="20.5">package</text></g></g><g transform="translate(10,10) scale(1,1)"><path fill="#C0C0C0" stroke="none" d="M 31 57 L 1300 57 L 1300 926 L 31 926" opacity="0.2"/></g><g transform="translate(10,10) scale(1,1)"><path fill="#C0C0C0" stroke="none" d="M 31 57 L 41 47 L 1310 47 L 1300 57" opacity="0.2"/></g><g transform="translate(10,10) scale(1,1)"><path fill="#C0C0C0" stroke="none" d="M 1310 47 L 1300 57 L 1300 926 L 1310 916" opacity="0.2"/></g><g transform="translate(10,10) scale(1,1)"><path fill="#e2e2e2" stroke="none" d="M 24 50 L 1293 50 L 1293 919 L 24 919"/></g><g transform="translate(10,10) scale(1,1)"><path fill="#e2e2e2" stroke="none" d="M 24 50 L 34 40 L 1303 40 L 1293 50"/></g><g transform="translate(10,10) scale(1,1)"><path fill="#e2e2e2" stroke="none" d="M 1303 40 L 1293 50 L 1293 919 L 1303 909"/></g><g transform="translate(10,10) scale(1,1)"><path fill="none" stroke="#000000" d="M 24 50 L 1293 50 L 1293 919 L 24 919 L 24 50" stroke-miterlimit="10"/></g><g transform="translate(10,10) scale(1,1)"><path fill="none" stroke="#000000" d="M 24 50 L 34 40 L 1303 40 L 1293 50 L 24 50" stroke-miterlimit="10"/></g><g transform="translate(10,10) scale(1,1)"><path fill="none" stroke="#000000" d="M 1303 40 L 1293 50 L 1293 919 L 1303 909 L 1303 40" stroke-miterlimit="10"/></g><g transform="translate(10,10) scale(1,1)"><g><path fill="none" stroke="none"/><text fill="#000000" stroke="none" font-family="Arial" font-size="16px" font-style="normal" font-weight="bold" text-decoration="none" x="561.5" y="72.5">Linux x86_64 | current OSX</text></g></g><g transform="translate(10,10) scale(1,1)"><path fill="#C0C0C0" stroke="none" d="M 47 97 L 1268 97 L 1268 910 L 47 910" opacity="0.2"/></g><g transform="translate(10,10) scale(1,1)"><path fill="#C0C0C0" stroke="none" d="M 47 97 L 57 87 L 1278 87 L 1268 97" opacity="0.2"/></g><g transform="translate(10,10) scale(1,1)"><path fill="#C0C0C0" stroke="none" d="M 1278 87 L 1268 97 L 1268 910 L 1278 900" opacity="0.2"/></g><g transform="translate(10,10) scale(1,1)"><path fill="#ffffff" stroke="none" d="M 40 90 L 1261 90 L 1261 903 L 40 903"/></g><g transform="translate(10,10) scale(1,1)"><path fill="#ffffff" stroke="none" d="M 40 90 L 50 80 L 1271 80 L 1261 90"/></g><g transform="translate(10,10) scale(1,1)"><path fill="#ffffff" stroke="none" d="M 1271 80 L 1261 90 L 1261 903 L 1271 893"/></g><g transform="translate(10,10) scale(1,1)"><path fill="none" stroke="#000000" d="M 40 90 L 1261 90 L 1261 903 L 40 903 L 40 90" stroke-miterlimit="10"/></g><g transform="translate(10,10) scale(1,1)"><path fill="none" stroke="#000000" d="M 40 90 L 50 80 L 1271 80 L 1261 90 L 40 90" stroke-miterlimit="10"/></g><g transform="translate(10,10) scale(1,1)"><path fill="none" stroke="#000000" d="M 1271 80 L 1261 90 L 1261 903 L 1271 893 L 1271 80" stroke-miterlimit="10"/></g><g transform="translate(10,10) scale(1,1)"><g><path fill="none" stroke="none"/><text fill="#000000" stroke="none" font-family="Arial" font-size="16px" font-style="normal" font-weight="bold" text-decoration="none" x="598" y="112.5">Docker Engine</text></g></g><g transform="translate(10,10) scale(1,1)"><path fill="#C0C0C0" stroke="none" d="M 671 393 L 916 393 L 916 614 L 671 614" opacity="0.2"/></g><g transform="translate(10,10) scale(1,1)"><path fill="#C0C0C0" stroke="none" d="M 671 393 L 681 383 L 926 383 L 916 393" opacity="0.2"/></g><g transform="translate(10,10) scale(1,1)"><path fill="#C0C0C0" stroke="none" d="M 926 383 L 916 393 L 916 614 L 926 604" opacity="0.2"/></g><g transform="translate(10,10) scale(1,1)"><path fill="#e2e2e2" stroke="none" d="M 664 386 L 909 386 L 909 607 L 664 607"/></g><g transform="translate(10,10) scale(1,1)"><path fill="#e2e2e2" stroke="none" d="M 664 386 L 674 376 L 919 376 L 909 386"/></g><g transform="translate(10,10) scale(1,1)"><path fill="#e2e2e2" stroke="none" d="M 919 376 L 909 386 L 909 607 L 919 597"/></g><g transform="translate(10,10) scale(1,1)"><path fill="none" stroke="#000000" d="M 664 386 L 909 386 L 909 607 L 664 607 L 664 386" stroke-miterlimit="10"/></g><g transform="translate(10,10) scale(1,1)"><path fill="none" stroke="#000000" d="M 664 386 L 674 376 L 919 376 L 909 386 L 664 386" stroke-miterlimit="10"/></g><g transform="translate(10,10) scale(1,1)"><path fill="none" stroke="#000000" d="M 919 376 L 909 386 L 909 607 L 919 597 L 919 376" stroke-miterlimit="10"/></g><g transform="translate(10,10) scale(1,1)"><g><path fill="none" stroke="none"/><text fill="#000000" stroke="none" font-family="Arial" font-size="16px" font-style="normal" font-weight="bold" text-decoration="none" x="763.5" y="408.5">Server</text><path fill="none" stroke="#000000" d="M 812 408.5 L 762 408.5" stroke-miterlimit="10"/></g></g><g transform="translate(10,10) scale(1,1)"><path fill="#C0C0C0" stroke="none" d="M 1015 121 L 1236 121 L 1236 318 L 1015 318" opacity="0.2"/></g><g transform="translate(10,10) scale(1,1)"><path fill="#C0C0C0" stroke="none" d="M 1015 121 L 1025 111 L 1246 111 L 1236 121" opacity="0.2"/></g><g transform="translate(10,10) scale(1,1)"><path fill="#C0C0C0" stroke="none" d="M 1246 111 L 1236 121 L 1236 318 L 1246 308" opacity="0.2"/></g><g transform="translate(10,10) scale(1,1)"><path fill="#e2e2e2" stroke="none" d="M 1008 114 L 1229 114 L 1229 311 L 1008 311"/></g><g transform="translate(10,10) scale(1,1)"><path fill="#e2e2e2" stroke="none" d="M 1008 114 L 1018 104 L 1239 104 L 1229 114"/></g><g transform="translate(10,10) scale(1,1)"><path fill="#e2e2e2" stroke="none" d="M 1239 104 L 1229 114 L 1229 311 L 1239 301"/></g><g transform="translate(10,10) scale(1,1)"><path fill="none" stroke="#000000" d="M 1008 114 L 1229 114 L 1229 311 L 1008 311 L 1008 114" stroke-miterlimit="10"/></g><g transform="translate(10,10) scale(1,1)"><path fill="none" stroke="#000000" d="M 1008 114 L 1018 104 L 1239 104 L 1229 114 L 1008 114" stroke-miterlimit="10"/></g><g transform="translate(10,10) scale(1,1)"><path fill="none" stroke="#000000" d="M 1239 104 L 1229 114 L 1229 311 L 1239 301 L 1239 104" stroke-miterlimit="10"/></g><g transform="translate(10,10) scale(1,1)"><g><path fill="none" stroke="none"/><text fill="#000000" stroke="none" font-family="Arial" font-size="16px" font-style="normal" font-weight="bold" text-decoration="none" x="1098" y="136.5">Client</text><path fill="none" stroke="#000000" d="M 1141 136.5 L 1097 136.5" stroke-miterlimit="10"/></g></g><g transform="translate(10,10) scale(1,1)"><path fill="#C0C0C0" stroke="none" d="M 1007 681 L 1228 681 L 1228 886 L 1007 886" opacity="0.2"/></g><g transform="translate(10,10) scale(1,1)"><path fill="#C0C0C0" stroke="none" d="M 1007 681 L 1017 671 L 1238 671 L 1228 681" opacity="0.2"/></g><g transform="translate(10,10) scale(1,1)"><path fill="#C0C0C0" stroke="none" d="M 1238 671 L 1228 681 L 1228 886 L 1238 876" opacity="0.2"/></g><g transform="translate(10,10) scale(1,1)"><path fill="#e2e2e2" stroke="none" d="M 1000 674 L 1221 674 L 1221 879 L 1000 879"/></g><g transform="translate(10,10) scale(1,1)"><path fill="#e2e2e2" stroke="none" d="M 1000 674 L 1010 664 L 1231 664 L 1221 674"/></g><g transform="translate(10,10) scale(1,1)"><path fill="#e2e2e2" stroke="none" d="M 1231 664 L 1221 674 L 1221 879 L 1231 869"/></g><g transform="translate(10,10) scale(1,1)"><path fill="none" stroke="#000000" d="M 1000 674 L 1221 674 L 1221 879 L 1000 879 L 1000 674" stroke-miterlimit="10"/></g><g transform="translate(10,10) scale(1,1)"><path fill="none" stroke="#000000" d="M 1000 674 L 1010 664 L 1231 664 L 1221 674 L 1000 674" stroke-miterlimit="10"/></g><g transform="translate(10,10) scale(1,1)"><path fill="none" stroke="#000000" d="M 1231 664 L 1221 674 L 1221 879 L 1231 869 L 1231 664" stroke-miterlimit="10"/></g><g transform="translate(10,10) scale(1,1)"><g><path fill="none" stroke="none"/><text fill="#000000" stroke="none" font-family="Arial" font-size="16px" font-style="normal" font-weight="bold" text-decoration="none" x="1065" y="696.5">Admin Client</text><path fill="none" stroke="#000000" d="M 1160 696.5 L 1062 696.5" stroke-miterlimit="10"/></g></g><g transform="translate(10,10) scale(1,1)"><path fill="none" stroke="#ff952b" d="M 1391 433 L 850 508" stroke-miterlimit="10"/></g><g transform="translate(10,10) scale(1,1)"><path fill="none" stroke="#ff7f00" d="M 1391 673 L 850 534" stroke-miterlimit="10"/></g><g transform="translate(10,10) scale(1,1)"><g><path fill="none" stroke="none"/><text fill="#000000" stroke="none" font-family="Arial" font-size="16px" font-style="normal" font-weight="normal" text-decoration="none" x="997" y="445">Upload of jars via https</text></g></g><g transform="translate(10,10) scale(1,1)"><path fill="#C0C0C0" stroke="none" d="M 1031 161 L 1212 161 L 1212 302 L 1031 302" opacity="0.2"/></g><g transform="translate(10,10) scale(1,1)"><path fill="#C0C0C0" stroke="none" d="M 1031 161 L 1041 151 L 1222 151 L 1212 161" opacity="0.2"/></g><g transform="translate(10,10) scale(1,1)"><path fill="#C0C0C0" stroke="none" d="M 1222 151 L 1212 161 L 1212 302 L 1222 292" opacity="0.2"/></g><g transform="translate(10,10) scale(1,1)"><path fill="#ffffff" stroke="none" d="M 1024 154 L 1205 154 L 1205 295 L 1024 295"/></g><g transform="translate(10,10) scale(1,1)"><path fill="#ffffff" stroke="none" d="M 1024 154 L 1034 144 L 1215 144 L 1205 154"/></g><g transform="translate(10,10) scale(1,1)"><path fill="#ffffff" stroke="none" d="M 1215 144 L 1205 154 L 1205 295 L 1215 285"/></g><g transform="translate(10,10) scale(1,1)"><path fill="none" stroke="#000000" d="M 1024 154 L 1205 154 L 1205 295 L 1024 295 L 1024 154" stroke-miterlimit="10"/></g><g transform="translate(10,10) scale(1,1)"><path fill="none" stroke="#000000" d="M 1024 154 L 1034 144 L 1215 144 L 1205 154 L 1024 154" stroke-miterlimit="10"/></g><g transform="translate(10,10) scale(1,1)"><path fill="none" stroke="#000000" d="M 1215 144 L 1205 154 L 1205 295 L 1215 285 L 1215 144" stroke-miterlimit="10"/></g><g transform="translate(10,10) scale(1,1)"><g><path fill="none" stroke="none"/><text fill="#000000" stroke="none" font-family="Arial" font-size="16px" font-style="normal" font-weight="bold" text-decoration="none" x="1094" y="176.5">Nginx</text></g></g><g transform="translate(10,10) scale(1,1)"><path fill="#C0C0C0" stroke="none" d="M 1023 729 L 1204 729 L 1204 870 L 1023 870" opacity="0.2"/></g><g transform="translate(10,10) scale(1,1)"><path fill="#C0C0C0" stroke="none" d="M 1023 729 L 1033 719 L 1214 719 L 1204 729" opacity="0.2"/></g><g transform="translate(10,10) scale(1,1)"><path fill="#C0C0C0" stroke="none" d="M 1214 719 L 1204 729 L 1204 870 L 1214 860" opacity="0.2"/></g><g transform="translate(10,10) scale(1,1)"><path fill="#ffffff" stroke="none" d="M 1016 722 L 1197 722 L 1197 863 L 1016 863"/></g><g transform="translate(10,10) scale(1,1)"><path fill="#ffffff" stroke="none" d="M 1016 722 L 1026 712 L 1207 712 L 1197 722"/></g><g transform="translate(10,10) scale(1,1)"><path fill="#ffffff" stroke="none" d="M 1207 712 L 1197 722 L 1197 863 L 1207 853"/></g><g transform="translate(10,10) scale(1,1)"><path fill="none" stroke="#000000" d="M 1016 722 L 1197 722 L 1197 863 L 1016 863 L 1016 722" stroke-miterlimit="10"/></g><g transform="translate(10,10) scale(1,1)"><path fill="none" stroke="#000000" d="M 1016 722 L 1026 712 L 1207 712 L 1197 722 L 1016 722" stroke-miterlimit="10"/></g><g transform="translate(10,10) scale(1,1)"><path fill="none" stroke="#000000" d="M 1207 712 L 1197 722 L 1197 863 L 1207 853 L 1207 712" stroke-miterlimit="10"/></g><g transform="translate(10,10) scale(1,1)"><g><path fill="none" stroke="none"/><text fill="#000000" stroke="none" font-family="Arial" font-size="16px" font-style="normal" font-weight="bold" text-decoration="none" x="1086" y="744.5">Nginx</text></g></g><g transform="translate(10,10) scale(1,1)"><path fill="#C0C0C0" stroke="none" d="M 119 649 L 308 649 L 308 838 L 119 838" opacity="0.2"/></g><g transform="translate(10,10) scale(1,1)"><path fill="#C0C0C0" stroke="none" d="M 119 649 L 129 639 L 318 639 L 308 649" opacity="0.2"/></g><g transform="translate(10,10) scale(1,1)"><path fill="#C0C0C0" stroke="none" d="M 318 639 L 308 649 L 308 838 L 318 828" opacity="0.2"/></g><g transform="translate(10,10) scale(1,1)"><path fill="#e2e2e2" stroke="none" d="M 112 642 L 301 642 L 301 831 L 112 831"/></g><g transform="translate(10,10) scale(1,1)"><path fill="#e2e2e2" stroke="none" d="M 112 642 L 122 632 L 311 632 L 301 642"/></g><g transform="translate(10,10) scale(1,1)"><path fill="#e2e2e2" stroke="none" d="M 311 632 L 301 642 L 301 831 L 311 821"/></g><g transform="translate(10,10) scale(1,1)"><path fill="none" stroke="#000000" d="M 112 642 L 301 642 L 301 831 L 112 831 L 112 642" stroke-miterlimit="10"/></g><g transform="translate(10,10) scale(1,1)"><path fill="none" stroke="#000000" d="M 112 642 L 122 632 L 311 632 L 301 642 L 112 642" stroke-miterlimit="10"/></g><g transform="translate(10,10) scale(1,1)"><path fill="none" stroke="#000000" d="M 311 632 L 301 642 L 301 831 L 311 821 L 311 632" stroke-miterlimit="10"/></g><g transform="translate(10,10) scale(1,1)"><g><path fill="none" stroke="none"/><text fill="#000000" stroke="none" font-family="Arial" font-size="16px" font-style="normal" font-weight="bold" text-decoration="none" x="153" y="664.5">User Container</text><path fill="none" stroke="#000000" d="M 264.5 664.5 L 149.5 664.5" stroke-miterlimit="10"/></g></g><g transform="translate(10,10) scale(1,1)"><path fill="none" stroke="#000000" d="M 297 711 L 663 549" stroke-miterlimit="10"/></g><g transform="translate(10,10) scale(1,1)"><path fill="none" stroke="#000000" d="M 304.58925100301263 703.0373830172944 L 297 711 L 307.9968313128193 710.7359903838948" stroke-miterlimit="10"/></g><g transform="translate(10,10) scale(1,1)"><g><path fill="none" stroke="none"/><text fill="#000000" stroke="none" font-family="Arial" font-size="16px" font-style="normal" font-weight="normal" text-decoration="none" x="461" y="653">managing of</text><text fill="#000000" stroke="none" font-family="Arial" font-size="16px" font-style="normal" font-weight="normal" text-decoration="none" x="461" y="669">compose-files</text></g></g><g transform="translate(10,10) scale(1,1)"><path fill="#C0C0C0" stroke="none" d="M 687 441 L 892 441 L 892 606 L 687 606" opacity="0.2"/></g><g transform="translate(10,10) scale(1,1)"><path fill="#C0C0C0" stroke="none" d="M 687 441 L 697 431 L 902 431 L 892 441" opacity="0.2"/></g><g transform="translate(10,10) scale(1,1)"><path fill="#C0C0C0" stroke="none" d="M 902 431 L 892 441 L 892 606 L 902 596" opacity="0.2"/></g><g transform="translate(10,10) scale(1,1)"><path fill="#ffffff" stroke="none" d="M 680 434 L 885 434 L 885 599 L 680 599"/></g><g transform="translate(10,10) scale(1,1)"><path fill="#ffffff" stroke="none" d="M 680 434 L 690 424 L 895 424 L 885 434"/></g><g transform="translate(10,10) scale(1,1)"><path fill="#ffffff" stroke="none" d="M 895 424 L 885 434 L 885 599 L 895 589"/></g><g transform="translate(10,10) scale(1,1)"><path fill="none" stroke="#000000" d="M 680 434 L 885 434 L 885 599 L 680 599 L 680 434" stroke-miterlimit="10"/></g><g transform="translate(10,10) scale(1,1)"><path fill="none" stroke="#000000" d="M 680 434 L 690 424 L 895 424 L 885 434 L 680 434" stroke-miterlimit="10"/></g><g transform="translate(10,10) scale(1,1)"><path fill="none" stroke="#000000" d="M 895 424 L 885 434 L 885 599 L 895 589 L 895 424" stroke-miterlimit="10"/></g><g transform="translate(10,10) scale(1,1)"><g><path fill="none" stroke="none"/><text fill="#000000" stroke="none" font-family="Arial" font-size="16px" font-style="normal" font-weight="bold" text-decoration="none" x="766" y="456.5">Java</text></g></g><g transform="translate(10,10) scale(1,1)"><path fill="none" stroke="#000000" d="M 719 494 L 633 464" stroke-miterlimit="10" stroke-dasharray="3"/></g><g transform="translate(10,10) scale(1,1)"><path fill="#C0C0C0" stroke="none" d="M 103 673 L 292 673 L 292 862 L 103 862" opacity="0.2"/></g><g transform="translate(10,10) scale(1,1)"><path fill="#C0C0C0" stroke="none" d="M 103 673 L 113 663 L 302 663 L 292 673" opacity="0.2"/></g><g transform="translate(10,10) scale(1,1)"><path fill="#C0C0C0" stroke="none" d="M 302 663 L 292 673 L 292 862 L 302 852" opacity="0.2"/></g><g transform="translate(10,10) scale(1,1)"><path fill="#e2e2e2" stroke="none" d="M 96 666 L 285 666 L 285 855 L 96 855"/></g><g transform="translate(10,10) scale(1,1)"><path fill="#e2e2e2" stroke="none" d="M 96 666 L 106 656 L 295 656 L 285 666"/></g><g transform="translate(10,10) scale(1,1)"><path fill="#e2e2e2" stroke="none" d="M 295 656 L 285 666 L 285 855 L 295 845"/></g><g transform="translate(10,10) scale(1,1)"><path fill="none" stroke="#000000" d="M 96 666 L 285 666 L 285 855 L 96 855 L 96 666" stroke-miterlimit="10"/></g><g transform="translate(10,10) scale(1,1)"><path fill="none" stroke="#000000" d="M 96 666 L 106 656 L 295 656 L 285 666 L 96 666" stroke-miterlimit="10"/></g><g transform="translate(10,10) scale(1,1)"><path fill="none" stroke="#000000" d="M 295 656 L 285 666 L 285 855 L 295 845 L 295 656" stroke-miterlimit="10"/></g><g transform="translate(10,10) scale(1,1)"><g><path fill="none" stroke="none"/><text fill="#000000" stroke="none" font-family="Arial" font-size="16px" font-style="normal" font-weight="bold" text-decoration="none" x="137" y="688.5">User Container</text><path fill="none" stroke="#000000" d="M 248.5 688.5 L 133.5 688.5" stroke-miterlimit="10"/></g></g><g transform="translate(10,10) scale(1,1)"><path fill="#C0C0C0" stroke="none" d="M 79 697 L 268 697 L 268 886 L 79 886" opacity="0.2"/></g><g transform="translate(10,10) scale(1,1)"><path fill="#C0C0C0" stroke="none" d="M 79 697 L 89 687 L 278 687 L 268 697" opacity="0.2"/></g><g transform="translate(10,10) scale(1,1)"><path fill="#C0C0C0" stroke="none" d="M 278 687 L 268 697 L 268 886 L 278 876" opacity="0.2"/></g><g transform="translate(10,10) scale(1,1)"><path fill="#e2e2e2" stroke="none" d="M 72 690 L 261 690 L 261 879 L 72 879"/></g><g transform="translate(10,10) scale(1,1)"><path fill="#e2e2e2" stroke="none" d="M 72 690 L 82 680 L 271 680 L 261 690"/></g><g transform="translate(10,10) scale(1,1)"><path fill="#e2e2e2" stroke="none" d="M 271 680 L 261 690 L 261 879 L 271 869"/></g><g transform="translate(10,10) scale(1,1)"><path fill="none" stroke="#000000" d="M 72 690 L 261 690 L 261 879 L 72 879 L 72 690" stroke-miterlimit="10"/></g><g transform="translate(10,10) scale(1,1)"><path fill="none" stroke="#000000" d="M 72 690 L 82 680 L 271 680 L 261 690 L 72 690" stroke-miterlimit="10"/></g><g transform="translate(10,10) scale(1,1)"><path fill="none" stroke="#000000" d="M 271 680 L 261 690 L 261 879 L 271 869 L 271 680" stroke-miterlimit="10"/></g><g transform="translate(10,10) scale(1,1)"><g><path fill="none" stroke="none"/><text fill="#000000" stroke="none" font-family="Arial" font-size="16px" font-style="normal" font-weight="bold" text-decoration="none" x="113" y="712.5">User Container</text><path fill="none" stroke="#000000" d="M 224.5 712.5 L 109.5 712.5" stroke-miterlimit="10"/></g></g><g transform="translate(10,10) scale(1,1)"><path fill="#ffffff" stroke="none" d="M 1368 848 L 1517 848 L 1527 858 L 1527 895 L 1368 895 L 1368 848"/></g><g transform="translate(10,10) scale(1,1)"><path fill="none" stroke="#000000" d="M 1368 848 L 1517 848 L 1527 858 L 1527 895 L 1368 895 L 1368 848 L 1368 848" stroke-miterlimit="10"/></g><g transform="translate(10,10) scale(1,1)"><path fill="none" stroke="#000000" d="M 1517 848 L 1517 858 L 1527 858 L 1517 848" stroke-miterlimit="10"/></g><g transform="translate(10,10) scale(1,1)"><g><path fill="none" stroke="none"/><text fill="#000000" stroke="none" font-family="Arial" font-size="16px" font-style="normal" font-weight="normal" text-decoration="none" x="1373" y="869">- shows statistics of</text><text fill="#000000" stroke="none" font-family="Arial" font-size="16px" font-style="normal" font-weight="normal" text-decoration="none" x="1373" y="885">users</text></g></g><g transform="translate(10,10) scale(1,1)"><path fill="none" stroke="#000000" d="M 1470 717 L 1452 847" stroke-miterlimit="10" stroke-dasharray="3"/></g><g transform="translate(10,10) scale(1,1)"><path fill="#ffffff" stroke="none" d="M 1336 160 L 1501 160 L 1511 170 L 1511 236 L 1336 236 L 1336 160"/></g><g transform="translate(10,10) scale(1,1)"><path fill="none" stroke="#000000" d="M 1336 160 L 1501 160 L 1511 170 L 1511 236 L 1336 236 L 1336 160 L 1336 160" stroke-miterlimit="10"/></g><g transform="translate(10,10) scale(1,1)"><path fill="none" stroke="#000000" d="M 1501 160 L 1501 170 L 1511 170 L 1501 160" stroke-miterlimit="10"/></g><g transform="translate(10,10) scale(1,1)"><g><path fill="none" stroke="none"/><text fill="#000000" stroke="none" font-family="Arial" font-size="16px" font-style="normal" font-weight="normal" text-decoration="none" x="1341" y="181">- shows experiments</text></g></g><g transform="translate(10,10) scale(1,1)"><g><path fill="none" stroke="none"/><text fill="#000000" stroke="none" font-family="Arial" font-size="16px" font-style="normal" font-weight="normal" text-decoration="none" x="1341" y="199">- subscribes to logs of</text><text fill="#000000" stroke="none" font-family="Arial" font-size="16px" font-style="normal" font-weight="normal" text-decoration="none" x="1341" y="215">user-code</text></g></g><g transform="translate(10,10) scale(1,1)"><path fill="none" stroke="#000000" d="M 1458 343 L 1433 238" stroke-miterlimit="10" stroke-dasharray="3"/></g><g transform="translate(10,10) scale(1,1)"><path fill="#C0C0C0" stroke="none" d="M 771.904638671875 487 L 799.344638671875 487 L 811.104638671875 498.76 L 811.104638671875 536 L 771.904638671875 536" opacity="0.2"/></g><g transform="translate(10,10) scale(1,1)"><path fill="#ffffff" stroke="none" d="M 764.904638671875 480 L 792.344638671875 480 L 804.104638671875 491.76 L 804.104638671875 529 L 764.904638671875 529"/></g><g transform="translate(10,10) scale(1,1)"><path fill="none" stroke="#000000" d="M 764.904638671875 480 L 792.344638671875 480 L 804.104638671875 491.76 L 804.104638671875 529 L 764.904638671875 529 L 764.904638671875 480" stroke-miterlimit="10"/></g><g transform="translate(10,10) scale(1,1)"><path fill="none" stroke="#000000" d="M 792.344638671875 480 L 792.344638671875 491.76 L 804.104638671875 491.76 L 792.344638671875 480" stroke-miterlimit="10"/></g><g transform="translate(10,10) scale(1,1)"><g><path fill="none" stroke="none"/><text fill="#000000" stroke="none" font-family="Arial" font-size="13px" font-style="normal" font-weight="bold" text-decoration="none" x="733.004638671875" y="548.5">Clojure_Server.jar</text><path fill="none" stroke="#000000" d="M 840.504638671875 548.5 L 728.504638671875 548.5" stroke-miterlimit="10"/></g></g><g transform="translate(10,10) scale(1,1)"><path fill="#C0C0C0" stroke="none" d="M 1067.4 759 L 1094.8400000000001 759 L 1106.6000000000001 770.76 L 1106.6000000000001 808 L 1067.4 808" opacity="0.2"/></g><g transform="translate(10,10) scale(1,1)"><path fill="#ffffff" stroke="none" d="M 1060.4 752 L 1087.84 752 L 1099.6 763.76 L 1099.6 801 L 1060.4 801"/></g><g transform="translate(10,10) scale(1,1)"><path fill="none" stroke="#000000" d="M 1060.4 752 L 1087.84 752 L 1099.6 763.76 L 1099.6 801 L 1060.4 801 L 1060.4 752" stroke-miterlimit="10"/></g><g transform="translate(10,10) scale(1,1)"><path fill="none" stroke="#000000" d="M 1087.84 752 L 1087.84 763.76 L 1099.6 763.76 L 1087.84 752" stroke-miterlimit="10"/></g><g transform="translate(10,10) scale(1,1)"><g><path fill="none" stroke="none"/><text fill="#000000" stroke="none" font-family="Arial" font-size="13px" font-style="normal" font-weight="bold" text-decoration="none" x="1049.5" y="820.5">Index.html</text><path fill="none" stroke="#000000" d="M 1113 820.5 L 1047 820.5" stroke-miterlimit="10"/></g></g><g transform="translate(10,10) scale(1,1)"><path fill="#C0C0C0" stroke="none" d="M 1131.4 223 L 1158.8400000000001 223 L 1170.6000000000001 234.76000000000002 L 1170.6000000000001 272 L 1131.4 272" opacity="0.2"/></g><g transform="translate(10,10) scale(1,1)"><path fill="#ffffff" stroke="none" d="M 1124.4 216 L 1151.84 216 L 1163.6 227.75999999999993 L 1163.6 265 L 1124.4 265"/></g><g transform="translate(10,10) scale(1,1)"><path fill="none" stroke="#000000" d="M 1124.4 216 L 1151.84 216 L 1163.6 227.75999999999993 L 1163.6 265 L 1124.4 265 L 1124.4 216" stroke-miterlimit="10"/></g><g transform="translate(10,10) scale(1,1)"><path fill="none" stroke="#000000" d="M 1151.84 216 L 1151.84 227.75999999999993 L 1163.6 227.75999999999993 L 1151.84 216" stroke-miterlimit="10"/></g><g transform="translate(10,10) scale(1,1)"><g><path fill="none" stroke="none"/><text fill="#000000" stroke="none" font-family="Arial" font-size="13px" font-style="normal" font-weight="bold" text-decoration="none" x="1105.5" y="284.5">Elm_Client.js</text><path fill="none" stroke="#000000" d="M 1185.5 284.5 L 1102.5 284.5" stroke-miterlimit="10"/></g></g><g transform="translate(10,10) scale(1,1)"><path fill="#C0C0C0" stroke="none" d="M 1131.4 783 L 1158.8400000000001 783 L 1170.6000000000001 794.76 L 1170.6000000000001 832 L 1131.4 832" opacity="0.2"/></g><g transform="translate(10,10) scale(1,1)"><path fill="#ffffff" stroke="none" d="M 1124.4 776 L 1151.84 776 L 1163.6 787.76 L 1163.6 825 L 1124.4 825"/></g><g transform="translate(10,10) scale(1,1)"><path fill="none" stroke="#000000" d="M 1124.4 776 L 1151.84 776 L 1163.6 787.76 L 1163.6 825 L 1124.4 825 L 1124.4 776" stroke-miterlimit="10"/></g><g transform="translate(10,10) scale(1,1)"><path fill="none" stroke="#000000" d="M 1151.84 776 L 1151.84 787.76 L 1163.6 787.76 L 1151.84 776" stroke-miterlimit="10"/></g><g transform="translate(10,10) scale(1,1)"><g><path fill="none" stroke="none"/><text fill="#000000" stroke="none" font-family="Arial" font-size="13px" font-style="normal" font-weight="bold" text-decoration="none" x="1103.5" y="844.5">Elm_Admin.js</text><path fill="none" stroke="#000000" d="M 1188 844.5 L 1100 844.5" stroke-miterlimit="10"/></g></g><g transform="translate(10,10) scale(1,1)"><path fill="#C0C0C0" stroke="none" d="M 1059.4 191 L 1086.8400000000001 191 L 1098.6000000000001 202.76000000000002 L 1098.6000000000001 240 L 1059.4 240" opacity="0.2"/></g><g transform="translate(10,10) scale(1,1)"><path fill="#ffffff" stroke="none" d="M 1052.4 184 L 1079.84 184 L 1091.6 195.75999999999993 L 1091.6 233 L 1052.4 233"/></g><g transform="translate(10,10) scale(1,1)"><path fill="none" stroke="#000000" d="M 1052.4 184 L 1079.84 184 L 1091.6 195.75999999999993 L 1091.6 233 L 1052.4 233 L 1052.4 184" stroke-miterlimit="10"/></g><g transform="translate(10,10) scale(1,1)"><path fill="none" stroke="#000000" d="M 1079.84 184 L 1079.84 195.75999999999993 L 1091.6 195.75999999999993 L 1079.84 184" stroke-miterlimit="10"/></g><g transform="translate(10,10) scale(1,1)"><g><path fill="none" stroke="none"/><text fill="#000000" stroke="none" font-family="Arial" font-size="13px" font-style="normal" font-weight="bold" text-decoration="none" x="1041.5" y="252.5">Index.html</text><path fill="none" stroke="#000000" d="M 1105 252.5 L 1039 252.5" stroke-miterlimit="10"/></g></g><g transform="translate(10,10) scale(1,1)"><path fill="#C0C0C0" stroke="none" d="M 87 737 L 244 737 L 244 870 L 87 870" opacity="0.2"/></g><g transform="translate(10,10) scale(1,1)"><path fill="#C0C0C0" stroke="none" d="M 87 737 L 97 727 L 254 727 L 244 737" opacity="0.2"/></g><g transform="translate(10,10) scale(1,1)"><path fill="#C0C0C0" stroke="none" d="M 254 727 L 244 737 L 244 870 L 254 860" opacity="0.2"/></g><g transform="translate(10,10) scale(1,1)"><path fill="#ffffff" stroke="none" d="M 80 730 L 237 730 L 237 863 L 80 863"/></g><g transform="translate(10,10) scale(1,1)"><path fill="#ffffff" stroke="none" d="M 80 730 L 90 720 L 247 720 L 237 730"/></g><g transform="translate(10,10) scale(1,1)"><path fill="#ffffff" stroke="none" d="M 247 720 L 237 730 L 237 863 L 247 853"/></g><g transform="translate(10,10) scale(1,1)"><path fill="none" stroke="#000000" d="M 80 730 L 237 730 L 237 863 L 80 863 L 80 730" stroke-miterlimit="10"/></g><g transform="translate(10,10) scale(1,1)"><path fill="none" stroke="#000000" d="M 80 730 L 90 720 L 247 720 L 237 730 L 80 730" stroke-miterlimit="10"/></g><g transform="translate(10,10) scale(1,1)"><path fill="none" stroke="#000000" d="M 247 720 L 237 730 L 237 863 L 247 853 L 247 720" stroke-miterlimit="10"/></g><g transform="translate(10,10) scale(1,1)"><g><path fill="none" stroke="none"/><text fill="#000000" stroke="none" font-family="Arial" font-size="16px" font-style="normal" font-weight="bold" text-decoration="none" x="142" y="752.5">Java</text></g></g><g transform="translate(10,10) scale(1,1)"><path fill="#C0C0C0" stroke="none" d="M 147.62412109375 775 L 175.06412109375003 775 L 186.82412109375002 786.76 L 186.82412109375002 824 L 147.62412109375 824" opacity="0.2"/></g><g transform="translate(10,10) scale(1,1)"><path fill="#ffffff" stroke="none" d="M 140.62412109374998 768 L 168.06412109375 768 L 179.82412109375002 779.76 L 179.82412109375002 817 L 140.62412109374998 817"/></g><g transform="translate(10,10) scale(1,1)"><path fill="none" stroke="#000000" d="M 140.62412109374998 768 L 168.06412109375 768 L 179.82412109375002 779.76 L 179.82412109375002 817 L 140.62412109374998 817 L 140.62412109374998 768" stroke-miterlimit="10"/></g><g transform="translate(10,10) scale(1,1)"><path fill="none" stroke="#000000" d="M 168.06412109375 768 L 168.06412109375 779.76 L 179.82412109375002 779.76 L 168.06412109375 768" stroke-miterlimit="10"/></g><g transform="translate(10,10) scale(1,1)"><g><path fill="none" stroke="none"/><text fill="#000000" stroke="none" font-family="Arial" font-size="13px" font-style="normal" font-weight="bold" text-decoration="none" x="119.22412109375" y="836.5">User_Code.jar</text><path fill="none" stroke="#000000" d="M 203.72412109375 836.5 L 116.72412109375 836.5" stroke-miterlimit="10"/></g></g><g transform="translate(10,10) scale(1,1)"><path fill="#ffffff" stroke="none" d="M 368 720 L 581 720 L 591 730 L 591 864 L 368 864 L 368 720"/></g><g transform="translate(10,10) scale(1,1)"><path fill="none" stroke="#000000" d="M 368 720 L 581 720 L 591 730 L 591 864 L 368 864 L 368 720 L 368 720" stroke-miterlimit="10"/></g><g transform="translate(10,10) scale(1,1)"><path fill="none" stroke="#000000" d="M 581 720 L 581 730 L 591 730 L 581 720" stroke-miterlimit="10"/></g><g transform="translate(10,10) scale(1,1)"><g><path fill="none" stroke="none"/><text fill="#000000" stroke="none" font-family="Arial" font-size="16px" font-style="normal" font-weight="normal" text-decoration="none" x="373" y="741">- deployment of user-code to</text><text fill="#000000" stroke="none" font-family="Arial" font-size="16px" font-style="normal" font-weight="normal" text-decoration="none" x="373" y="757">individual containers</text></g></g><g transform="translate(10,10) scale(1,1)"><g><path fill="none" stroke="none"/><text fill="#000000" stroke="none" font-family="Arial" font-size="16px" font-style="normal" font-weight="normal" text-decoration="none" x="373" y="775">- is templated with compose-</text><text fill="#000000" stroke="none" font-family="Arial" font-size="16px" font-style="normal" font-weight="normal" text-decoration="none" x="373" y="791">file</text></g></g><g transform="translate(10,10) scale(1,1)"><g><path fill="none" stroke="none"/><text fill="#000000" stroke="none" font-family="Arial" font-size="16px" font-style="normal" font-weight="normal" text-decoration="none" x="373" y="809">- reads inputs from file, shared</text><text fill="#000000" stroke="none" font-family="Arial" font-size="16px" font-style="normal" font-weight="normal" text-decoration="none" x="373" y="825">with Server</text></g></g><g transform="translate(10,10) scale(1,1)"><g><path fill="none" stroke="none"/><text fill="#000000" stroke="none" font-family="Arial" font-size="16px" font-style="normal" font-weight="normal" text-decoration="none" x="373" y="843">- writes logs to file, shared</text><text fill="#000000" stroke="none" font-family="Arial" font-size="16px" font-style="normal" font-weight="normal" text-decoration="none" x="373" y="859">with Server</text></g></g><g transform="translate(10,10) scale(1,1)"><path fill="none" stroke="#000000" d="M 297 769 L 367 778" stroke-miterlimit="10" stroke-dasharray="3"/></g><g transform="translate(10,10) scale(1,1)"><path fill="#ffffff" stroke="none" d="M 416 320 L 621 320 L 631 330 L 631 530 L 416 530 L 416 320"/></g><g transform="translate(10,10) scale(1,1)"><path fill="none" stroke="#000000" d="M 416 320 L 621 320 L 631 330 L 631 530 L 416 530 L 416 320 L 416 320" stroke-miterlimit="10"/></g><g transform="translate(10,10) scale(1,1)"><path fill="none" stroke="#000000" d="M 621 320 L 621 330 L 631 330 L 621 320" stroke-miterlimit="10"/></g><g transform="translate(10,10) scale(1,1)"><g><path fill="none" stroke="none"/><text fill="#000000" stroke="none" font-family="Arial" font-size="16px" font-style="normal" font-weight="normal" text-decoration="none" x="421" y="341">- Has Websocket Endpoint</text></g></g><g transform="translate(10,10) scale(1,1)"><g><path fill="none" stroke="none"/><text fill="#000000" stroke="none" font-family="Arial" font-size="16px" font-style="normal" font-weight="normal" text-decoration="none" x="421" y="359">- initiates creation of</text><text fill="#000000" stroke="none" font-family="Arial" font-size="16px" font-style="normal" font-weight="normal" text-decoration="none" x="421" y="375">temp-user (folder,</text><text fill="#000000" stroke="none" font-family="Arial" font-size="16px" font-style="normal" font-weight="normal" text-decoration="none" x="421" y="391">compose-file, topics)</text></g></g><g transform="translate(10,10) scale(1,1)"><g><path fill="none" stroke="none"/><text fill="#000000" stroke="none" font-family="Arial" font-size="16px" font-style="normal" font-weight="normal" text-decoration="none" x="421" y="409">- dispatches cmds from</text><text fill="#000000" stroke="none" font-family="Arial" font-size="16px" font-style="normal" font-weight="normal" text-decoration="none" x="421" y="425">clients to its containers</text></g></g><g transform="translate(10,10) scale(1,1)"><g><path fill="none" stroke="none"/><text fill="#000000" stroke="none" font-family="Arial" font-size="16px" font-style="normal" font-weight="normal" text-decoration="none" x="421" y="443">- REST-Endpoint for upload</text><text fill="#000000" stroke="none" font-family="Arial" font-size="16px" font-style="normal" font-weight="normal" text-decoration="none" x="421" y="459">of user-code</text></g></g><g transform="translate(10,10) scale(1,1)"><g><path fill="none" stroke="none"/><text fill="#000000" stroke="none" font-family="Arial" font-size="16px" font-style="normal" font-weight="normal" text-decoration="none" x="421" y="477">- has control over</text><text fill="#000000" stroke="none" font-family="Arial" font-size="16px" font-style="normal" font-weight="normal" text-decoration="none" x="421" y="493">docker-deamon on host via</text><text fill="#000000" stroke="none" font-family="Arial" font-size="16px" font-style="normal" font-weight="normal" text-decoration="none" x="421" y="509">unix-socket</text></g></g><g transform="translate(10,10) scale(1,1)"><path fill="#C0C0C0" stroke="none" d="M 1367 321 L 1596 321 L 1596 518 L 1367 518" opacity="0.2"/></g><g transform="translate(10,10) scale(1,1)"><path fill="#C0C0C0" stroke="none" d="M 1367 321 L 1377 311 L 1606 311 L 1596 321" opacity="0.2"/></g><g transform="translate(10,10) scale(1,1)"><path fill="#C0C0C0" stroke="none" d="M 1606 311 L 1596 321 L 1596 518 L 1606 508" opacity="0.2"/></g><g transform="translate(10,10) scale(1,1)"><path fill="#e2e2e2" stroke="none" d="M 1360 314 L 1589 314 L 1589 511 L 1360 511"/></g><g transform="translate(10,10) scale(1,1)"><path fill="#e2e2e2" stroke="none" d="M 1360 314 L 1370 304 L 1599 304 L 1589 314"/></g><g transform="translate(10,10) scale(1,1)"><path fill="#e2e2e2" stroke="none" d="M 1599 304 L 1589 314 L 1589 511 L 1599 501"/></g><g transform="translate(10,10) scale(1,1)"><path fill="none" stroke="#000000" d="M 1360 314 L 1589 314 L 1589 511 L 1360 511 L 1360 314" stroke-miterlimit="10"/></g><g transform="translate(10,10) scale(1,1)"><path fill="none" stroke="#000000" d="M 1360 314 L 1370 304 L 1599 304 L 1589 314 L 1360 314" stroke-miterlimit="10"/></g><g transform="translate(10,10) scale(1,1)"><path fill="none" stroke="#000000" d="M 1599 304 L 1589 314 L 1589 511 L 1599 501 L 1599 304" stroke-miterlimit="10"/></g><g transform="translate(10,10) scale(1,1)"><g><path fill="none" stroke="none"/><text fill="#000000" stroke="none" font-family="Arial" font-size="16px" font-style="normal" font-weight="bold" text-decoration="none" x="1383" y="336.5">Computer | Mobile Device</text></g></g><g transform="translate(10,10) scale(1,1)"><path fill="#C0C0C0" stroke="none" d="M 1383 361 L 1572 361 L 1572 502 L 1383 502" opacity="0.2"/></g><g transform="translate(10,10) scale(1,1)"><path fill="#C0C0C0" stroke="none" d="M 1383 361 L 1393 351 L 1582 351 L 1572 361" opacity="0.2"/></g><g transform="translate(10,10) scale(1,1)"><path fill="#C0C0C0" stroke="none" d="M 1582 351 L 1572 361 L 1572 502 L 1582 492" opacity="0.2"/></g><g transform="translate(10,10) scale(1,1)"><path fill="#ffffff" stroke="none" d="M 1376 354 L 1565 354 L 1565 495 L 1376 495"/></g><g transform="translate(10,10) scale(1,1)"><path fill="#ffffff" stroke="none" d="M 1376 354 L 1386 344 L 1575 344 L 1565 354"/></g><g transform="translate(10,10) scale(1,1)"><path fill="#ffffff" stroke="none" d="M 1575 344 L 1565 354 L 1565 495 L 1575 485"/></g><g transform="translate(10,10) scale(1,1)"><path fill="none" stroke="#000000" d="M 1376 354 L 1565 354 L 1565 495 L 1376 495 L 1376 354" stroke-miterlimit="10"/></g><g transform="translate(10,10) scale(1,1)"><path fill="none" stroke="#000000" d="M 1376 354 L 1386 344 L 1575 344 L 1565 354 L 1376 354" stroke-miterlimit="10"/></g><g transform="translate(10,10) scale(1,1)"><path fill="none" stroke="#000000" d="M 1575 344 L 1565 354 L 1565 495 L 1575 485 L 1575 344" stroke-miterlimit="10"/></g><g transform="translate(10,10) scale(1,1)"><g><path fill="none" stroke="none"/><text fill="#000000" stroke="none" font-family="Arial" font-size="16px" font-style="normal" font-weight="bold" text-decoration="none" x="1441.5" y="376.5">Browser</text></g></g><g transform="translate(10,10) scale(1,1)"><path fill="#C0C0C0" stroke="none" d="M 1367 585 L 1596 585 L 1596 790 L 1367 790" opacity="0.2"/></g><g transform="translate(10,10) scale(1,1)"><path fill="#C0C0C0" stroke="none" d="M 1367 585 L 1377 575 L 1606 575 L 1596 585" opacity="0.2"/></g><g transform="translate(10,10) scale(1,1)"><path fill="#C0C0C0" stroke="none" d="M 1606 575 L 1596 585 L 1596 790 L 1606 780" opacity="0.2"/></g><g transform="translate(10,10) scale(1,1)"><path fill="#e2e2e2" stroke="none" d="M 1360 578 L 1589 578 L 1589 783 L 1360 783"/></g><g transform="translate(10,10) scale(1,1)"><path fill="#e2e2e2" stroke="none" d="M 1360 578 L 1370 568 L 1599 568 L 1589 578"/></g><g transform="translate(10,10) scale(1,1)"><path fill="#e2e2e2" stroke="none" d="M 1599 568 L 1589 578 L 1589 783 L 1599 773"/></g><g transform="translate(10,10) scale(1,1)"><path fill="none" stroke="#000000" d="M 1360 578 L 1589 578 L 1589 783 L 1360 783 L 1360 578" stroke-miterlimit="10"/></g><g transform="translate(10,10) scale(1,1)"><path fill="none" stroke="#000000" d="M 1360 578 L 1370 568 L 1599 568 L 1589 578 L 1360 578" stroke-miterlimit="10"/></g><g transform="translate(10,10) scale(1,1)"><path fill="none" stroke="#000000" d="M 1599 568 L 1589 578 L 1589 783 L 1599 773 L 1599 568" stroke-miterlimit="10"/></g><g transform="translate(10,10) scale(1,1)"><g><path fill="none" stroke="none"/><text fill="#000000" stroke="none" font-family="Arial" font-size="16px" font-style="normal" font-weight="bold" text-decoration="none" x="1383" y="600.5">Computer | Mobile Device</text></g></g><g transform="translate(10,10) scale(1,1)"><path fill="#C0C0C0" stroke="none" d="M 1383 625 L 1572 625 L 1572 774 L 1383 774" opacity="0.2"/></g><g transform="translate(10,10) scale(1,1)"><path fill="#C0C0C0" stroke="none" d="M 1383 625 L 1393 615 L 1582 615 L 1572 625" opacity="0.2"/></g><g transform="translate(10,10) scale(1,1)"><path fill="#C0C0C0" stroke="none" d="M 1582 615 L 1572 625 L 1572 774 L 1582 764" opacity="0.2"/></g><g transform="translate(10,10) scale(1,1)"><path fill="#ffffff" stroke="none" d="M 1376 618 L 1565 618 L 1565 767 L 1376 767"/></g><g transform="translate(10,10) scale(1,1)"><path fill="#ffffff" stroke="none" d="M 1376 618 L 1386 608 L 1575 608 L 1565 618"/></g><g transform="translate(10,10) scale(1,1)"><path fill="#ffffff" stroke="none" d="M 1575 608 L 1565 618 L 1565 767 L 1575 757"/></g><g transform="translate(10,10) scale(1,1)"><path fill="none" stroke="#000000" d="M 1376 618 L 1565 618 L 1565 767 L 1376 767 L 1376 618" stroke-miterlimit="10"/></g><g transform="translate(10,10) scale(1,1)"><path fill="none" stroke="#000000" d="M 1376 618 L 1386 608 L 1575 608 L 1565 618 L 1376 618" stroke-miterlimit="10"/></g><g transform="translate(10,10) scale(1,1)"><path fill="none" stroke="#000000" d="M 1575 608 L 1565 618 L 1565 767 L 1575 757 L 1575 608" stroke-miterlimit="10"/></g><g transform="translate(10,10) scale(1,1)"><g><path fill="none" stroke="none"/><text fill="#000000" stroke="none" font-family="Arial" font-size="16px" font-style="normal" font-weight="bold" text-decoration="none" x="1441.5" y="640.5">Browser</text></g></g><g transform="translate(10,10) scale(1,1)"><rect fill="#C0C0C0" stroke="none" x="1409" y="407" width="150" height="44" opacity="0.2"/></g><g transform="translate(10,10) scale(1,1)"><rect fill="#ffffff" stroke="none" x="1402" y="400" width="150" height="44"/></g><g transform="translate(10,10) scale(1,1)"><path fill="none" stroke="#000000" d="M 1402 400 L 1552 400 L 1552 444 L 1402 444 L 1402 400 Z Z" stroke-miterlimit="10"/></g><g transform="translate(10,10) scale(1,1)"><rect fill="#ffffff" stroke="none" x="1392" y="407" width="20" height="10"/></g><g transform="translate(10,10) scale(1,1)"><path fill="none" stroke="#000000" d="M 1392 407 L 1412 407 L 1412 417 L 1392 417 L 1392 407 Z Z" stroke-miterlimit="10"/></g><g transform="translate(10,10) scale(1,1)"><rect fill="#ffffff" stroke="none" x="1392" y="427" width="20" height="10"/></g><g transform="translate(10,10) scale(1,1)"><path fill="none" stroke="#000000" d="M 1392 427 L 1412 427 L 1412 437 L 1392 437 L 1392 427 Z Z" stroke-miterlimit="10"/></g><g transform="translate(10,10) scale(1,1)"><g><path fill="none" stroke="none"/><text fill="#000000" stroke="none" font-family="Arial" font-size="16px" font-style="normal" font-weight="bold" text-decoration="none" x="1424" y="422.5">VAR Tool Client</text><path fill="none" stroke="#000000" d="M 1542.5 422.5 L 1421.5 422.5" stroke-miterlimit="10"/></g></g><g transform="translate(10,10) scale(1,1)"><rect fill="#C0C0C0" stroke="none" x="1409" y="679" width="153.2890625" height="44" opacity="0.2"/></g><g transform="translate(10,10) scale(1,1)"><rect fill="#ffffff" stroke="none" x="1402" y="672" width="153.2890625" height="44"/></g><g transform="translate(10,10) scale(1,1)"><path fill="none" stroke="#000000" d="M 1402 672 L 1555.2890625 672 L 1555.2890625 716 L 1402 716 L 1402 672 Z Z" stroke-miterlimit="10"/></g><g transform="translate(10,10) scale(1,1)"><rect fill="#ffffff" stroke="none" x="1392" y="679" width="20" height="10"/></g><g transform="translate(10,10) scale(1,1)"><path fill="none" stroke="#000000" d="M 1392 679 L 1412 679 L 1412 689 L 1392 689 L 1392 679 Z Z" stroke-miterlimit="10"/></g><g transform="translate(10,10) scale(1,1)"><rect fill="#ffffff" stroke="none" x="1392" y="699" width="20" height="10"/></g><g transform="translate(10,10) scale(1,1)"><path fill="none" stroke="#000000" d="M 1392 699 L 1412 699 L 1412 709 L 1392 709 L 1392 699 Z Z" stroke-miterlimit="10"/></g><g transform="translate(10,10) scale(1,1)"><g><path fill="none" stroke="none"/><text fill="#000000" stroke="none" font-family="Arial" font-size="16px" font-style="normal" font-weight="bold" text-decoration="none" x="1423.64453125" y="694.5">VAR Tool Admin</text><path fill="none" stroke="#000000" d="M 1547.14453125 694.5 L 1420.14453125 694.5" stroke-miterlimit="10"/></g></g><g transform="translate(10,10) scale(1,1)"><g><path fill="none" stroke="none"/><text fill="#000000" stroke="none" font-family="Arial" font-size="16px" font-style="normal" font-weight="normal" text-decoration="none" x="1053" y="621">wss</text></g></g><g transform="translate(10,10) scale(1,1)"><g><path fill="none" stroke="none"/><text fill="#000000" stroke="none" font-family="Arial" font-size="16px" font-style="normal" font-weight="normal" text-decoration="none" x="1085" y="501">wss</text></g></g><g transform="translate(10,10) scale(1,1)"><path fill="none" stroke="#000000" d="M 1233 746 L 1391 712" stroke-miterlimit="10"/></g><g transform="translate(10,10) scale(1,1)"><g><path fill="none" stroke="none"/><text fill="#000000" stroke="none" font-family="Arial" font-size="16px" font-style="normal" font-weight="normal" text-decoration="none" x="1317" y="709">https</text></g></g><g transform="translate(10,10) scale(1,1)"><g><path fill="none" stroke="none"/><text fill="#000000" stroke="none" font-family="Arial" font-size="16px" font-style="normal" font-weight="normal" text-decoration="none" x="1309" y="317">https</text></g></g><g transform="translate(10,10) scale(1,1)"><path fill="none" stroke="#000000" d="M 1435 399 L 1241 280" stroke-miterlimit="10"/></g><g transform="translate(10,10) scale(1,1)"><path fill="none" stroke="#000000" d="M 1391 430 L 921 479" stroke-miterlimit="10"/></g><g transform="translate(10,10) scale(1,1)"><path fill="none" stroke="#000000" d="M 930.6713922795047 473.759372997824 L 921 479 L 931.544389955261 482.13302417344505" stroke-miterlimit="10"/></g><g transform="translate(10,10) scale(1,1)"><path fill="none" stroke="#000000" d="M 679 529 Q 328 584 222 719" stroke-miterlimit="10"/></g><g transform="translate(10,10) scale(1,1)"><g><path fill="none" stroke="none"/><text fill="#000000" stroke="none" font-family="Arial" font-size="16px" font-style="normal" font-weight="normal" text-decoration="none" x="349" y="573">share files via</text><text fill="#000000" stroke="none" font-family="Arial" font-size="16px" font-style="normal" font-weight="normal" text-decoration="none" x="349" y="589">host</text></g></g></g></svg>